<?xml version="1.0" encoding="utf-8"?>
<!-- Generator: Adobe Illustrator 18.1.1, SVG Export Plug-In . SVG Version: 6.00 Build 0)  -->
<!DOCTYPE svg PUBLIC "-//W3C//DTD SVG 1.1//EN" "http://www.w3.org/Graphics/SVG/1.1/DTD/svg11.dtd">
<svg version="1.1" id="Layer_1" xmlns="http://www.w3.org/2000/svg" xmlns:xlink="http://www.w3.org/1999/xlink" x="0px" y="0px"
	 viewBox="0 0 500 500" style="enable-background:new 0 0 500 500;" xml:space="preserve">
<style type="text/css">
	.st0{fill:#FFFFFF;}
</style>
<g>
	<g>
		<path class="st0" d="M215.4,143.4l-1.3-4.4c-10-31.5-36.6-52.5-66.6-52.5c-8.5,0-16.7,1.5-24.6,4.9l-4.9,2.1l-0.5-5.4
			c-0.3-2.6-0.3-4.6-0.3-6.9c0-42.5,31-77.1,68.9-77.1c25.4,0,48.7,15.6,60.7,40.7c5.4,11,8.2,23.6,8.2,36.4c0,20-6.7,38.7-19,53.1
			l-0.8,1l-1.3,0.3c-4.9,1.3-9.7,3.1-14.6,5.6L215.4,143.4z M147.5,78.6c31.8,0,60.5,21.5,72.5,53.8c3.6-1.5,7.2-3.1,11-4.1
			c10.5-12.8,16.4-29.7,16.4-47.2c0-11.5-2.6-22.8-7.4-33.1c-10.8-22.6-31.3-36.4-53.8-36.4c-33.8,0-61.3,31.3-61.3,69.5
			c0,0.3,0,0.8,0,1C132.4,79.9,139.8,78.6,147.5,78.6z"/>
	</g>
	<g>
		<path class="st0" d="M294.8,150.6l-3.1-1.5c-10-4.9-20.5-6.9-31.3-6.7l-7.4,0.3l4.1-6.4c9-13.6,13.6-29.7,13.6-46.6
			c0-12.8-2.6-24.9-7.9-36.1l-2.1-4.1l4.4-1.3c5.1-1.3,10.5-2.1,15.6-2.1c34.3,0,63.6,28.7,68.2,66.9l0.5,3.8l-3.8,0.5
			c-19.2,2.1-37.2,13.1-49.2,30.2L294.8,150.6z M267.2,134.7c8.7,0.5,17.2,2.3,25.1,5.9c12.3-16.4,29.7-27.2,48.7-30.2
			C335.6,78.1,310.2,54,281,54c-3.1,0-6.2,0.3-9.2,0.8c4.4,11,6.7,22.8,6.7,35.1C278.4,106,274.6,121.4,267.2,134.7z"/>
	</g>
	<g>
		<path class="st0" d="M377.6,298.2H340l7.7-13.3c-5.4-1-10.5-2.6-15.4-4.9l-3.6-1.8l2.1-3.6c6.7-12.3,10-26.4,10-40.5
			c0-27.7-13.3-53.6-34.6-67.9l-3.3-2.3l2.3-3.3c11.8-16.4,28.4-26.7,46.9-28.7c2.3-0.3,4.6-0.5,6.9-0.5c37.9,0,68.9,34.6,68.9,77.1
			c0,37.9-24.9,70.2-57.7,76.1L377.6,298.2z M353.5,290.5h11l-5.4-9.5L353.5,290.5z M339.2,274.6c4.9,1.8,10,3.1,15.1,3.6l4.6,0.5
			l4.6-0.5c31.8-2.6,56.6-33.1,56.6-69.2c0-38.2-27.4-69.5-61.3-69.5c-2.1,0-4.1,0-5.9,0.3c-15.1,1.8-29,9.7-39.2,22.6
			c21.5,15.9,34.6,43.1,34.6,71.8C348.4,248.2,345.3,262.1,339.2,274.6z"/>
	</g>
	<g>
		<path class="st0" d="M271,320h-37.7l7.7-13.3h-0.5c-0.3,0-0.5,0-1-0.3c-0.5,0-1-0.3-1.5-0.3h-0.5c-0.3,0-0.5,0-0.8-0.3
			c-0.8-0.3-1.8-0.5-2.8-0.8h-0.3c-1-0.3-1.8-0.5-2.6-0.8l-1-0.3c-0.8-0.3-1.3-0.5-1.8-0.8l-1-0.5c-0.5-0.3-0.8-0.3-1.3-0.5
			l-1.5-0.8c-0.5-0.3-1.3-0.5-1.8-0.8l-0.3-0.3c-0.5-0.3-1-0.5-1.3-0.8c-0.5-0.3-1-0.8-1.8-1c-0.3-0.3-0.8-0.5-1.3-0.8l-1.3-0.8
			c-0.3-0.3-0.8-0.5-1-0.8l-1.5-1c-0.5-0.5-1-0.8-1.3-1l-0.8-0.8c-1-0.8-1.8-1.5-2.6-2.3l-0.8-0.5c-0.5-0.5-1-0.8-1.5-1.3
			c-0.3-0.3-0.5-0.5-0.8-0.8c-0.5-0.5-1-1-1.3-1.3s-0.5-0.5-0.5-0.5c-2.3-2.3-4.4-4.9-6.4-7.7L198,279c-0.5-0.8-1-1.3-1.3-2.1
			l-0.3-0.3c-1.8-2.8-3.6-5.9-5.1-9l-0.5-0.8v-0.5c-1.8-3.8-3.3-7.9-4.6-12.3l-0.8-2.6l2.3-1.5c5.1-3.6,9.7-7.9,13.8-13.1
			c11.5-14.1,18.2-32.3,18.7-51.5v-0.5c0-0.5,0-1,0-1.5c0-3.3-0.3-6.9-0.8-10.5c-0.3-2.6-0.8-4.6-1-6.7v-0.8v-2.6l2.3-1.3
			c1-0.5,1.8-1,2.6-1.3l1-0.5c0.8-0.5,1.8-0.8,2.6-1.3l0.8-0.3c1-0.5,2.1-0.8,3.1-1.3l1.5-0.5c0.5-0.3,1.3-0.3,1.8-0.5
			c0.5-0.3,1.3-0.3,1.8-0.5c0.3,0,0.5-0.3,1-0.3h0.5c0.8-0.3,1.3-0.3,2.1-0.5l12.6-2.6l-1.3,1.3c8.7-0.3,16.9,1.5,24.9,4.9l0,0
			l2.8,1.3c0.3,0,0.3,0.3,0.5,0.3c1.3,0.5,2.6,1.3,3.8,2.1l0.3,0.3c1.3,0.8,2.3,1.3,3.1,2.1l0,0l1,0.8c2.3,1.5,4.9,3.3,6.9,5.4
			l0.5,0.3c1,1,2.1,1.8,3.1,2.8c2.1,2.3,4.1,4.4,5.9,6.9l0.5,0.5c0.8,1,1.5,2.1,2.3,3.1c0,0,0.3,0.3,0.3,0.5
			c1.5,2.3,3.1,4.9,4.6,7.7l0.5,0.8c0.5,1,1,2.3,1.5,3.3l0.5,0.8c0.5,1.3,1,2.6,1.5,4.1v0.3c0.5,1.3,1,2.6,1.3,4.1l0.3,1
			c0.3,1,0.5,2.3,1,3.3l0.3,1.3c0.3,1.5,0.8,3.1,1,4.4v0.3c0.3,1.5,0.5,2.8,0.5,4.4l0.3,1.3c0,1,0.3,2.3,0.3,3.3v1.3
			c0,1.5,0.3,3.1,0.3,4.6s0,3.3-0.3,4.9v1.3c0,1.3-0.3,2.8-0.5,4.1c0,0,0,0.3,0,0.5c-0.3,1.5-0.5,3.1-0.8,4.9v0.5
			c-0.3,1.5-0.5,3.1-1,4.4v0.3c-0.8,3.3-1.8,6.4-3.1,9.5v0.3c-0.5,1.3-1,2.8-1.8,4.1l-0.5,1c-0.5,1.3-1,2.3-1.8,3.3
			c0,0.3-0.3,0.3-0.3,0.5c-0.8,1.3-1.3,2.3-2.1,3.6l-0.5,0.8c-0.5,1-1,1.8-1.8,2.6l-0.8,1c-0.5,0.8-1,1.5-1.8,2.3l-0.8,0.8
			c-0.8,1-1.5,2.1-2.6,3.1l0,0c-1.3,1.5-2.8,3.1-4.4,4.6c-1.5,1.5-3.1,2.8-4.6,4.1l-0.3,0.3c-1,0.8-2.1,1.5-2.8,2.3l-0.5,0.3
			c-2.1,1.5-4.4,2.8-6.7,4.1l-0.8,0.3c-1,0.5-1.8,1-2.8,1.3l-1,0.5c-1,0.5-2.1,0.8-3.1,1.3l-0.5,0.3c-1.3,0.5-2.3,0.8-3.6,1.3
			l-0.8,0.3c-1,0.3-2.1,0.5-2.8,0.8l-1.3,0.3c-0.8,0.3-1.3,0.3-2.1,0.3L271,320z M246.7,312.3h11l-5.4-9.5L246.7,312.3z
			 M198.7,264.1c1.3,2.8,2.8,5.4,4.6,7.9c0.5,0.8,1,1.3,1.3,2.1l0.3,0.3c1.8,2.6,3.6,4.9,5.6,6.9l0.5,0.5c0.5,0.5,0.8,0.8,1.3,1.3
			l0.5,0.5c0.5,0.5,0.8,0.8,1.3,1.3l0.5,0.5c0.8,0.8,1.5,1.3,2.3,2.1l0.8,0.5c0.3,0.3,0.8,0.5,1,0.8l3.3,2.3c0.5,0.3,0.8,0.5,1,0.8
			c0.5,0.3,1,0.5,1.5,0.8s0.8,0.5,1,0.5l0.3,0.3c0.5,0.3,1,0.5,1.5,0.8l1.3,0.8c0.3,0.3,0.8,0.3,1,0.5l1,0.5c0.5,0.3,1,0.5,1.5,0.5
			l0.8,0.3c0.8,0.3,1.5,0.5,2.3,0.8c0,0,0.3,0,0.5,0c0.8,0.3,1.5,0.5,2.3,0.8l1,0.3c0.5,0,1,0.3,1.5,0.3l3.6,0.5
			c1,0,1.8,0.3,2.8,0.3l4.6,0.5l4.6-0.5c1,0,2.3-0.3,3.3-0.5c0.3,0,0.5,0,0.8,0h0.3c0.8-0.3,1.8-0.3,2.6-0.5l1-0.3
			c0.8-0.3,1.8-0.5,2.6-0.8l0.8-0.3c1-0.3,2.1-0.8,3.1-1l0.5-0.3c1-0.3,1.8-0.8,2.8-1l0.8-0.5c0.8-0.3,1.5-0.8,2.3-1.3l0.5-0.3
			c2.1-1.3,4.1-2.3,6.2-3.8l0.3-0.3c1-0.8,1.8-1.3,2.6-2.1l0.3-0.3c1.5-1,2.8-2.3,4.1-3.6c1.3-1.3,2.6-2.6,3.8-3.8l0.3-0.3
			c0.8-0.8,1.5-1.8,2.3-2.6l0.5-0.8c0.5-0.5,1-1.3,1.5-2.1l0.8-1c0.5-0.8,1-1.5,1.5-2.3l0.3-0.5c0.8-1,1.3-2.1,1.8-3.1l0.3-0.5
			c0.5-1,1-2.1,1.5-3.1l0.5-0.8c0.5-1.3,1-2.3,1.5-3.6v-0.3c1-2.8,2.1-5.6,2.8-8.5v-0.5c0.3-1.3,0.5-2.6,0.8-3.8l0.3-0.8
			c0.3-1.5,0.5-2.8,0.8-4.4v-0.5c0.3-1.3,0.3-2.6,0.3-3.8v-1c0-1.5,0.3-2.8,0.3-4.4c0-1.5,0-2.8,0-4.4v-1.3c0-1-0.3-2.1-0.3-3.1
			l-0.3-1.3c-0.3-1.3-0.3-2.6-0.5-3.8v-0.5c-0.3-1.3-0.5-2.6-0.8-3.8l-0.3-1c-0.3-1-0.5-2.1-0.8-3.1l-0.3-1c-0.3-1-0.8-2.3-1.3-3.3
			l-0.3-0.3c-0.5-1.3-1-2.6-1.5-3.8l-0.3-0.8c-0.5-1-1-2.1-1.5-3.1l-0.5-0.8c-1.3-2.3-2.6-4.6-4.1-6.9L300,188
			c-0.8-1-1.5-2.1-2.1-3.1l-0.5-0.5c-1.5-2.1-3.3-4.1-5.1-5.9c-1-1-2.1-1.8-2.8-2.8l-0.3-0.3c-2.1-1.8-4.1-3.3-5.9-4.6l-0.5-0.3
			c-1.3-0.8-2.3-1.5-3.6-2.3V168l-0.5-0.3l0,0c-1-0.5-1.8-1-2.8-1.5l-0.8-0.5c-10.8-5.1-22-6.7-34.1-4.1l-1.5,0.3c0,0,0,0-0.3,0
			l-1.3,0.3c-0.5,0.3-1,0.3-1.8,0.5c-0.5,0.3-1,0.3-1.5,0.5l-1.5,0.5c-1,0.3-1.8,0.8-2.8,1l-0.8,0.3c-0.8,0.3-1.5,0.8-2.3,1l-1,0.5
			c0,0-0.3,0-0.3,0.3c0.3,1.3,0.5,2.8,0.5,4.4c0.5,4.1,0.8,7.7,0.8,11.5c0,0.5,0,1,0,1.8v0.5c-0.5,20.8-7.7,40.7-20.5,56.1
			c-3.8,4.9-8.2,9-13.1,12.6c1,3.1,2.3,6.2,3.6,9L198.7,264.1z"/>
	</g>
	<g>
		<path class="st0" d="M155.9,272.6h-37.7l7.7-13.3c-32.8-5.9-57.7-38.2-57.7-76.1c0-31.3,16.7-59.2,42.5-71.2
			c8.5-3.8,17.2-5.9,26.4-5.9c30.2,0,56.6,21.5,65.6,53.8c1,3.6,1.8,6.9,2.3,10.8v0.3c0.5,4.1,0.8,8.2,0.8,12.3
			c0,24.6-10.5,47.9-28.4,62.3c-8.7,7.2-18.7,11.8-29.5,13.8L155.9,272.6z M131.6,264.9h11l-5.4-9.5L131.6,264.9z M137.2,113.7
			c-7.9,0-15.6,1.8-23.1,5.1c-23,10.8-38.1,35.9-38.1,64.3c0,36.1,24.9,66.6,56.6,69.2l4.6,0.5l4.6-0.5c11.3-1,21.8-5.4,31-12.8
			c15.9-13.1,25.6-34.1,25.6-56.4c0-3.8-0.3-7.7-0.8-11.5v-0.3c-0.5-3.1-1.3-6.4-2.1-9.5C187.2,133.2,163.9,113.7,137.2,113.7z"/>
	</g>
	<g>
		
			<rect x="78.2" y="379.4" transform="matrix(0.4446 0.8957 -0.8957 0.4446 453.4884 35.1724)" class="st0" width="240.4" height="7.7"/>
	</g>
	<g>
		
			<rect x="297" y="293.1" transform="matrix(0.8942 0.4476 -0.4476 0.8942 209.7545 -92.6171)" class="st0" width="7.7" height="208.9"/>
	</g>
	<g>
		
			<rect x="169.7" y="405.4" transform="matrix(8.387781e-03 1 -1 8.387781e-03 659.1495 153.8482)" class="st0" width="164.5" height="7.7"/>
	</g>
</g>
</svg>
