<?xml version="1.0" encoding="utf-8"?>
<!-- Generator: Adobe Illustrator 18.1.1, SVG Export Plug-In . SVG Version: 6.00 Build 0)  -->
<!DOCTYPE svg PUBLIC "-//W3C//DTD SVG 1.1//EN" "http://www.w3.org/Graphics/SVG/1.1/DTD/svg11.dtd">
<svg version="1.1" id="gift" xmlns="http://www.w3.org/2000/svg" xmlns:xlink="http://www.w3.org/1999/xlink" x="0px" y="0px"
	 viewBox="0 0 500 500" style="enable-background:new 0 0 500 500;" xml:space="preserve">
<style type="text/css">
	.st0{fill:#FFFFFF;}
</style>
<g id="group">
	<g>
		<path class="st0" d="M468,285H30.8V142.8H468V285z M41.8,274H457V153.8H41.8V274z"/>
	</g>
	<g>
		<rect x="152" y="147.2" class="st0" width="11" height="132.3"/>
	</g>
	<g>
		<rect x="321" y="147.2" class="st0" width="11" height="132.3"/>
	</g>
	<g>
		<path class="st0" d="M437.9,492.6h-374V275.8h374V492.6z M74.9,481.5h352V286.8h-352C74.9,286.8,74.9,481.5,74.9,481.5z"/>
	</g>
	<g>
		<rect x="196.1" y="279.5" class="st0" width="11" height="209.4"/>
	</g>
	<g>
		<rect x="277" y="279.5" class="st0" width="11" height="209.4"/>
	</g>
	<g>
		<path class="st0" d="M254.5,152l-10.3-4.4c16.9-39.7,6.2-85.6-25-109.1c-18.7-14-45.6-20.6-68.3-16.9c-11.4,1.8-26.8,7-36.7,21.3
			c-9.2,13.2-12.1,31.2-8.1,49.2c4.4,20.2,17.6,37.8,36,48.5l-5.5,9.6c-20.9-12.1-36-32.3-41.1-55.5c-4.8-20.9-1.1-42.2,9.9-58
			c9.6-14,25-22.8,44.1-25.7c25.7-4,55.8,3.3,76.8,19.1C261.2,56.1,273.3,107.5,254.5,152z"/>
	</g>
	<g>
		<path class="st0" d="M365.5,152.4l-4.8-9.9c22.8-10.7,37.5-32,39.3-55.1c2.2-33.1-23.9-59.1-49.2-66.9c-4.8-1.5-21.7-5.5-38.6,0.7
			c-34.5,12.9-55.1,65-50.7,126.7l-11,0.7C245.4,81.1,268.9,26,308.2,10.9c20.2-7.7,40-2.6,45.9-1.1c29.8,8.8,59.9,39.3,57.3,78.3
			C409.2,114.9,392,139.5,365.5,152.4z"/>
	</g>
</g>
</svg>
