<?xml version="1.0" encoding="utf-8"?>
<!-- Generator: Adobe Illustrator 18.1.1, SVG Export Plug-In . SVG Version: 6.00 Build 0)  -->
<!DOCTYPE svg PUBLIC "-//W3C//DTD SVG 1.1//EN" "http://www.w3.org/Graphics/SVG/1.1/DTD/svg11.dtd">
<svg version="1.1" id="Layer_1" xmlns="http://www.w3.org/2000/svg" xmlns:xlink="http://www.w3.org/1999/xlink" x="0px" y="0px"
	 viewBox="0 0 500 500" style="enable-background:new 0 0 500 500;" xml:space="preserve">
<style type="text/css">
	.st0{fill:#FFFFFF;}
</style>
<g>
	<g>
		<path class="st0" d="M173.9,137c-35.9,0-64.8-28.9-64.8-64.8S138,7.5,173.9,7.5s64.8,28.9,64.8,64.8
			C238.7,108.1,209.4,137,173.9,137z M173.9,17.9c-30,0-54.3,24.4-54.3,54.3s24.4,54.3,54.3,54.3s54.3-24.4,54.3-54.3
			S203.8,17.9,173.9,17.9z"/>
	</g>
	<g>
		<path class="st0" d="M468.2,241.1c-65.5-35.2-140.4-42.8-222.9-22.6l-2.4-10.1c85-20.9,162.6-12.9,230.2,23.7L468.2,241.1z"/>
	</g>
	<g>
		<path class="st0" d="M32.5,198.7l-4.2-9.8c88.5-38.3,174.8-47,256.7-25.8l-2.8,10.1C202.8,153,118.9,161.4,32.5,198.7z"/>
	</g>
	<g>
		<path class="st0" d="M411.4,420.9H277c-8.7,0-15.7-2.8-20.5-8c-8.4-8.7-7.7-21.2-7.7-21.9v-0.7l0.3-0.7L309.7,221l9.8,3.5
			L259.2,392c0,2.1,0.7,9.1,4.9,13.6c2.8,3.1,7.3,4.5,12.9,4.5h132.3c3.5-1.7,15.7-8.7,13.6-22.3c-2.8-15.3-36.6-112.5-54.3-162
			l9.8-3.5c2.1,5.9,51.2,143.5,54.7,163.7c3.5,18.8-11.8,30.6-20.5,34.1L411.4,420.9z"/>
	</g>
	<g>
		<rect x="365.1" y="424.3" class="st0" width="10.4" height="69.7"/>
	</g>
	<g>
		<polygon class="st0" points="124.8,445.2 114.3,445.2 114.3,343.2 100.7,193.8 111.2,192.7 124.8,343.2 		"/>
	</g>
	<g>
		<polygon class="st0" points="197.9,445.2 187.5,445.2 187.5,342.5 201,192.7 211.5,193.8 197.9,343.2 		"/>
	</g>
	<g>
		<rect x="124.8" y="344.2" class="st0" width="73.1" height="10.4"/>
	</g>
	<g>
		<path class="st0" d="M372.4,182.3c-35.9,0-64.8-28.9-64.8-64.8s28.9-64.8,64.8-64.8s64.8,28.9,64.8,64.8S407.9,182.3,372.4,182.3z
			 M372.4,63.2c-30,0-54.3,24.4-54.3,54.3s24.4,54.3,54.3,54.3c30,0,54.3-24.4,54.3-54.3S402.4,63.2,372.4,63.2z"/>
	</g>
	<g>
		<rect x="298.9" y="424.3" class="st0" width="10.4" height="69.7"/>
	</g>
</g>
</svg>
